<svg id="svg" version="1.1" xmlns="http://www.w3.org/2000/svg" xmlns:xlink="http://www.w3.org/1999/xlink" width="400" height="400" viewBox="0, 0, 400,400"><g id="svgg"><path id="path0" d="M73.200 158.702 C 73.200 159.890,78.720 161.031,86.187 161.386 C 91.760 161.651,91.561 161.523,92.611 165.515 L 93.423 168.600 95.011 168.564 C 97.097 168.516,108.724 167.677,113.800 167.208 C 119.078 166.721,121.055 166.708,120.580 167.166 C 120.371 167.368,119.758 167.593,119.218 167.666 C 118.608 167.749,117.731 168.482,116.905 169.600 C 115.075 172.074,111.290 176.948,109.600 179.006 C 103.853 186.003,102.212 188.422,102.890 188.901 C 103.193 189.115,103.238 189.330,103.000 189.432 C 100.736 190.401,94.139 197.523,92.338 200.943 C 91.974 201.634,90.804 203.214,89.738 204.454 C 88.672 205.694,87.041 207.610,86.114 208.713 L 84.428 210.716 85.899 210.992 C 86.708 211.144,89.379 211.143,91.834 210.989 C 94.787 210.805,96.384 210.851,96.555 211.126 C 96.926 211.727,96.103 211.892,89.205 212.599 C 82.369 213.299,82.162 213.392,79.772 216.840 C 76.957 220.902,80.060 221.056,95.000 217.598 C 96.514 217.247,103.681 215.629,107.600 214.752 C 108.590 214.531,110.030 214.190,110.800 213.995 C 111.570 213.799,114.270 213.171,116.800 212.597 C 119.330 212.024,123.200 211.123,125.400 210.595 C 127.600 210.068,130.678 209.340,132.241 208.978 C 135.565 208.209,135.514 208.239,136.804 206.308 C 137.808 204.805,138.392 204.471,141.500 203.629 C 143.617 203.055,143.639 202.663,141.600 201.847 C 140.720 201.495,140.000 201.060,140.000 200.880 C 140.000 200.701,139.157 199.960,138.127 199.234 C 136.133 197.828,135.905 197.812,131.600 198.789 C 130.610 199.014,128.651 199.451,127.247 199.760 C 125.844 200.070,124.567 200.530,124.410 200.783 C 124.254 201.037,122.882 201.511,121.363 201.837 C 119.843 202.163,117.700 202.621,116.600 202.855 C 115.500 203.089,113.970 203.420,113.200 203.590 C 112.430 203.761,110.000 204.265,107.800 204.712 C 99.708 206.354,99.678 206.348,101.729 203.342 C 102.458 202.274,103.169 201.091,103.309 200.713 C 103.450 200.336,105.013 197.978,106.782 195.473 C 108.552 192.969,110.000 190.753,110.000 190.549 C 110.000 190.345,110.549 189.577,111.221 188.841 C 113.730 186.095,121.426 176.032,127.556 167.484 C 131.030 162.639,133.109 161.689,141.769 160.984 C 149.237 160.377,146.898 160.110,131.600 159.824 C 87.598 159.000,77.611 158.775,75.500 158.560 C 74.164 158.424,73.200 158.484,73.200 158.702 M177.781 184.645 C 174.534 189.202,169.600 196.635,169.600 196.972 C 169.600 197.097,171.906 197.200,174.724 197.200 C 178.515 197.200,180.049 197.347,180.623 197.767 C 181.950 198.738,181.021 198.911,174.667 198.879 C 168.485 198.847,166.800 199.188,166.800 200.471 C 166.800 200.705,165.404 202.900,163.697 205.348 C 161.990 207.797,159.979 210.764,159.228 211.942 L 157.862 214.084 159.431 215.544 C 164.386 220.154,163.946 220.030,170.200 218.564 C 171.520 218.254,173.500 217.812,174.600 217.581 C 175.700 217.350,177.320 217.000,178.200 216.803 C 180.944 216.188,185.712 215.162,187.800 214.735 C 188.900 214.511,190.430 214.170,191.200 213.978 C 191.970 213.786,194.040 213.334,195.800 212.973 C 202.564 211.585,202.177 211.807,203.774 208.402 C 204.558 206.732,205.200 205.122,205.200 204.825 C 205.200 204.062,200.824 204.473,192.600 206.006 C 191.500 206.211,188.530 206.665,186.000 207.015 C 183.470 207.365,180.860 207.801,180.200 207.985 L 179.000 208.318 180.400 208.365 C 183.332 208.464,183.594 210.005,180.676 209.994 C 178.604 209.986,177.489 209.404,178.400 208.806 C 178.870 208.498,178.758 208.411,177.887 208.406 C 176.334 208.398,176.187 207.593,177.330 205.340 C 178.799 202.442,180.891 201.200,184.304 201.200 C 184.970 201.200,185.609 200.953,185.725 200.650 C 185.855 200.313,186.838 200.010,188.268 199.866 C 201.700 198.514,204.198 197.911,205.771 195.642 C 207.981 192.452,207.848 192.412,194.900 192.405 C 183.754 192.399,183.870 192.430,185.627 189.962 L 186.454 188.800 191.527 188.799 C 196.102 188.797,196.738 188.709,198.000 187.899 C 199.307 187.060,199.960 186.987,207.789 186.800 L 216.177 186.600 217.643 184.400 C 218.450 183.190,219.046 182.093,218.969 181.962 C 218.835 181.733,212.028 181.489,190.600 180.945 L 180.600 180.690 177.781 184.645 M294.786 191.300 C 292.246 195.837,286.800 206.311,286.800 206.658 C 286.800 206.721,287.700 206.892,288.800 207.038 C 291.764 207.431,291.461 208.330,288.314 208.481 C 285.455 208.618,283.155 210.694,284.651 211.788 C 285.220 212.204,285.128 212.364,283.899 213.089 C 282.889 213.684,282.093 214.725,281.049 216.811 C 278.637 221.633,278.837 221.740,287.139 220.048 C 289.291 219.609,289.289 219.611,292.758 214.014 C 296.138 208.560,296.168 208.400,293.824 208.400 C 292.847 208.400,291.942 208.230,291.813 208.022 C 291.356 207.282,294.680 206.804,300.300 206.802 C 306.995 206.800,306.533 207.414,304.840 200.759 C 302.090 189.954,301.527 188.429,300.102 187.912 C 299.388 187.652,298.700 187.116,298.575 186.720 C 298.174 185.456,297.812 185.893,294.786 191.300 M259.800 186.668 C 246.100 187.335,236.161 192.842,232.850 201.600 C 231.489 205.201,230.400 209.132,230.400 210.446 C 230.400 212.487,230.959 213.183,236.717 218.309 L 240.434 221.619 243.117 221.397 C 249.365 220.880,250.711 220.709,252.800 220.168 C 258.422 218.711,264.231 214.370,267.706 209.028 L 268.946 207.121 268.321 203.261 C 267.950 200.965,266.944 197.394,265.840 194.451 C 263.774 188.942,263.788 188.799,266.477 187.722 C 269.564 186.487,268.139 186.262,259.800 186.668 M315.192 192.900 C 309.862 202.388,308.265 206.000,309.400 206.000 C 310.467 206.000,310.038 206.690,308.500 207.449 C 307.418 207.984,305.857 208.229,302.900 208.331 C 300.139 208.427,298.800 208.624,298.801 208.936 C 298.804 209.938,300.056 216.497,300.440 217.518 C 301.635 220.700,302.341 221.194,305.687 221.197 L 308.774 221.200 310.939 217.500 C 314.592 211.259,320.000 201.223,320.000 200.686 C 320.000 200.407,320.240 199.823,320.533 199.389 C 321.470 198.003,326.400 188.444,326.400 188.014 C 326.400 187.756,324.853 187.600,322.285 187.600 L 318.170 187.600 315.192 192.900 M256.969 194.414 C 260.515 197.683,262.323 204.640,260.500 208.000 C 259.640 209.584,255.548 212.540,253.286 213.211 C 246.231 215.305,242.888 215.325,239.975 213.290 C 236.435 210.817,236.324 209.355,239.288 204.200 C 239.921 203.100,240.692 201.639,241.003 200.952 C 241.661 199.496,243.836 198.028,249.400 195.286 C 255.445 192.306,254.766 192.384,256.969 194.414 M182.000 194.000 C 182.000 194.220,180.999 194.400,179.776 194.400 C 178.396 194.400,177.647 194.248,177.800 194.000 C 177.936 193.780,178.937 193.600,180.024 193.600 C 181.111 193.600,182.000 193.780,182.000 194.000 M172.800 195.000 C 172.800 195.330,172.530 195.600,172.200 195.600 C 171.870 195.600,171.600 195.330,171.600 195.000 C 171.600 194.670,171.870 194.400,172.200 194.400 C 172.530 194.400,172.800 194.670,172.800 195.000 M175.788 209.180 C 176.269 209.959,174.333 210.400,170.426 210.400 C 166.402 210.400,165.428 210.022,167.500 209.265 C 168.914 208.748,175.479 208.681,175.788 209.180 M98.200 214.400 C 98.064 214.620,97.693 214.800,97.376 214.800 C 97.059 214.800,96.800 214.620,96.800 214.400 C 96.800 214.180,97.171 214.000,97.624 214.000 C 98.077 214.000,98.336 214.180,98.200 214.400 " stroke="none" fill="#f4f404" fill-rule="evenodd"></path><path id="path1" d="M86.300 0.292 C 84.815 0.372,83.600 0.582,83.600 0.759 C 83.600 0.936,82.127 1.195,80.327 1.334 C 78.527 1.473,76.871 1.769,76.647 1.993 C 76.423 2.217,75.747 2.400,75.144 2.400 C 74.541 2.400,73.936 2.580,73.800 2.800 C 73.664 3.020,72.933 3.200,72.176 3.200 C 71.419 3.200,70.800 3.357,70.800 3.549 C 70.800 3.741,70.072 4.014,69.183 4.156 C 67.693 4.395,66.086 5.059,65.600 5.638 C 65.490 5.769,64.712 5.985,63.870 6.118 C 62.105 6.396,60.000 7.256,60.000 7.698 C 60.000 7.864,59.640 8.000,59.200 8.000 C 58.760 8.000,58.400 8.160,58.400 8.357 C 58.400 8.553,57.905 8.828,57.300 8.969 C 56.226 9.219,52.798 10.780,52.400 11.201 C 52.290 11.317,51.437 11.769,50.505 12.206 C 49.572 12.643,48.807 13.115,48.805 13.257 C 48.802 13.398,48.350 13.626,47.800 13.764 C 47.250 13.902,46.800 14.192,46.800 14.408 C 46.800 14.623,46.440 14.800,46.000 14.800 C 45.560 14.800,45.200 14.980,45.200 15.200 C 45.200 15.420,45.007 15.600,44.771 15.600 C 44.536 15.600,44.092 15.825,43.785 16.100 C 42.508 17.245,42.016 17.600,41.705 17.600 C 41.524 17.600,41.117 17.960,40.800 18.400 C 40.483 18.840,40.001 19.200,39.730 19.200 C 39.458 19.200,38.786 19.650,38.236 20.200 C 37.686 20.750,37.131 21.200,37.001 21.200 C 36.737 21.200,35.805 21.937,35.081 22.719 C 34.816 23.005,34.360 23.455,34.066 23.719 C 33.772 23.984,32.964 24.785,32.269 25.500 C 31.574 26.215,30.835 26.800,30.627 26.800 C 30.093 26.800,26.804 30.496,26.802 31.100 C 26.801 31.375,26.628 31.600,26.418 31.600 C 26.208 31.600,25.623 32.041,25.118 32.579 C 24.613 33.118,23.525 34.269,22.700 35.138 C 21.875 36.007,21.200 36.876,21.200 37.070 C 21.200 37.265,20.840 37.683,20.400 38.000 C 19.960 38.317,19.600 38.799,19.600 39.070 C 19.600 39.342,19.150 40.014,18.600 40.564 C 18.050 41.114,17.600 41.709,17.600 41.886 C 17.600 42.063,17.189 42.656,16.686 43.204 C 16.184 43.752,15.459 44.830,15.075 45.600 C 14.315 47.126,13.517 48.485,13.196 48.800 C 13.084 48.910,12.634 49.720,12.196 50.600 C 11.758 51.480,11.310 52.290,11.200 52.400 C 10.722 52.878,10.000 54.439,10.000 54.995 C 10.000 55.328,9.840 55.600,9.645 55.600 C 9.449 55.600,9.171 56.230,9.026 57.000 C 8.882 57.770,8.592 58.400,8.382 58.400 C 8.172 58.400,8.000 58.760,8.000 59.200 C 8.000 59.640,7.864 60.000,7.698 60.000 C 7.294 60.000,6.484 61.875,6.142 63.603 C 5.991 64.371,5.538 65.587,5.137 66.305 C 4.736 67.023,4.293 68.328,4.153 69.205 C 4.013 70.082,3.741 70.800,3.549 70.800 C 3.357 70.800,3.200 71.430,3.200 72.200 C 3.200 72.970,3.020 73.600,2.800 73.600 C 2.580 73.600,2.400 74.194,2.400 74.920 C 2.400 75.646,2.221 76.419,2.002 76.638 C 1.783 76.857,1.485 78.468,1.341 80.218 C 1.197 81.968,0.881 83.528,0.639 83.685 C 0.013 84.092,0.013 315.908,0.639 316.315 C 0.881 316.472,1.197 318.032,1.341 319.782 C 1.485 321.532,1.783 323.143,2.002 323.362 C 2.221 323.581,2.400 324.354,2.400 325.080 C 2.400 325.806,2.580 326.400,2.800 326.400 C 3.020 326.400,3.200 327.030,3.200 327.800 C 3.200 328.570,3.363 329.200,3.562 329.200 C 3.762 329.200,4.049 330.100,4.200 331.200 C 4.351 332.300,4.638 333.200,4.838 333.200 C 5.037 333.200,5.200 333.650,5.200 334.200 C 5.200 334.750,5.358 335.200,5.550 335.200 C 5.742 335.200,6.017 335.784,6.159 336.497 C 6.489 338.143,7.304 340.000,7.698 340.000 C 7.864 340.000,8.000 340.360,8.000 340.800 C 8.000 341.240,8.160 341.600,8.357 341.600 C 8.553 341.600,8.828 342.095,8.969 342.700 C 9.216 343.761,10.773 347.190,11.195 347.600 C 11.308 347.710,11.758 348.520,12.196 349.400 C 12.634 350.280,13.084 351.090,13.196 351.200 C 13.503 351.501,14.371 352.920,14.664 353.600 C 14.806 353.930,15.525 355.055,16.261 356.101 C 16.997 357.146,17.600 358.115,17.600 358.254 C 17.600 358.393,17.928 358.797,18.328 359.153 C 18.729 359.509,19.398 360.385,19.815 361.101 C 20.232 361.816,20.894 362.503,21.287 362.627 C 21.679 362.752,22.000 363.172,22.000 363.561 C 22.000 363.950,22.495 364.721,23.100 365.274 C 23.705 365.828,24.465 366.668,24.789 367.142 C 25.113 367.615,25.698 368.104,26.089 368.228 C 26.480 368.352,26.800 368.680,26.800 368.955 C 26.800 369.666,30.269 373.200,30.966 373.200 C 31.285 373.200,31.648 373.520,31.772 373.911 C 31.896 374.302,32.385 374.887,32.858 375.211 C 33.332 375.535,34.172 376.295,34.726 376.900 C 35.279 377.505,35.952 378.000,36.221 378.000 C 36.490 378.000,37.135 378.538,37.655 379.196 C 38.175 379.854,38.817 380.394,39.082 380.396 C 39.347 380.398,40.014 380.850,40.564 381.400 C 41.114 381.950,41.675 382.400,41.810 382.400 C 41.946 382.400,42.308 382.625,42.615 382.900 C 43.938 384.087,44.391 384.400,44.783 384.400 C 45.012 384.400,45.200 384.580,45.200 384.800 C 45.200 385.020,45.560 385.200,46.000 385.200 C 46.440 385.200,46.800 385.377,46.800 385.592 C 46.800 385.808,47.250 386.098,47.800 386.236 C 48.350 386.374,48.800 386.647,48.800 386.843 C 48.800 387.040,49.048 387.200,49.351 387.200 C 49.654 387.200,50.126 387.470,50.400 387.800 C 50.674 388.130,51.236 388.400,51.649 388.400 C 52.062 388.400,52.400 388.580,52.400 388.800 C 52.400 389.020,52.670 389.200,53.000 389.200 C 53.330 389.200,53.600 389.380,53.600 389.600 C 53.600 389.820,53.849 390.000,54.154 390.000 C 54.459 390.000,55.224 390.269,55.854 390.598 C 56.484 390.926,57.315 391.196,57.700 391.198 C 58.085 391.199,58.400 391.380,58.400 391.600 C 58.400 391.820,58.760 392.000,59.200 392.000 C 59.640 392.000,60.000 392.136,60.000 392.302 C 60.000 392.706,61.875 393.516,63.603 393.858 C 64.371 394.009,65.587 394.462,66.305 394.863 C 67.023 395.264,68.328 395.707,69.205 395.847 C 70.082 395.987,70.800 396.259,70.800 396.451 C 70.800 396.643,71.430 396.800,72.200 396.800 C 72.970 396.800,73.600 396.980,73.600 397.200 C 73.600 397.420,74.194 397.600,74.920 397.600 C 75.646 397.600,76.419 397.779,76.638 397.998 C 76.857 398.217,78.468 398.515,80.218 398.659 C 81.968 398.803,83.528 399.119,83.685 399.361 C 84.092 399.987,315.908 399.987,316.315 399.361 C 316.472 399.119,318.032 398.803,319.782 398.659 C 321.532 398.515,323.143 398.217,323.362 397.998 C 323.581 397.779,324.354 397.600,325.080 397.600 C 325.806 397.600,326.400 397.420,326.400 397.200 C 326.400 396.980,327.030 396.800,327.800 396.800 C 328.570 396.800,329.200 396.643,329.200 396.451 C 329.200 396.259,329.918 395.987,330.795 395.847 C 331.672 395.707,332.977 395.264,333.695 394.863 C 334.413 394.462,335.629 394.009,336.397 393.858 C 338.125 393.516,340.000 392.706,340.000 392.302 C 340.000 392.136,340.360 392.000,340.800 392.000 C 341.240 392.000,341.600 391.820,341.600 391.600 C 341.600 391.380,341.915 391.199,342.300 391.198 C 342.685 391.196,343.516 390.926,344.146 390.598 C 344.776 390.269,345.541 390.000,345.846 390.000 C 346.151 390.000,346.400 389.820,346.400 389.600 C 346.400 389.380,346.670 389.200,347.000 389.200 C 347.330 389.200,347.600 389.020,347.600 388.800 C 347.600 388.580,347.938 388.400,348.351 388.400 C 348.764 388.400,349.326 388.130,349.600 387.800 C 349.874 387.470,350.346 387.200,350.649 387.200 C 350.952 387.200,351.200 387.040,351.200 386.843 C 351.200 386.647,351.650 386.374,352.200 386.236 C 352.750 386.098,353.200 385.808,353.200 385.592 C 353.200 385.377,353.560 385.200,354.000 385.200 C 354.440 385.200,354.800 385.020,354.800 384.800 C 354.800 384.580,354.993 384.400,355.229 384.400 C 355.464 384.400,355.908 384.175,356.215 383.900 C 357.416 382.823,357.976 382.400,358.201 382.400 C 358.331 382.400,358.886 381.950,359.436 381.400 C 359.986 380.850,360.653 380.398,360.918 380.396 C 361.183 380.394,361.825 379.854,362.345 379.196 C 362.865 378.538,363.510 378.000,363.779 378.000 C 364.048 378.000,364.721 377.505,365.274 376.900 C 365.828 376.295,366.668 375.535,367.142 375.211 C 367.615 374.887,368.104 374.302,368.228 373.911 C 368.352 373.520,368.715 373.200,369.034 373.200 C 369.731 373.200,373.200 369.666,373.200 368.955 C 373.200 368.680,373.520 368.352,373.911 368.228 C 374.302 368.104,374.887 367.615,375.211 367.142 C 375.535 366.668,376.295 365.828,376.900 365.274 C 377.505 364.721,378.000 363.950,378.000 363.561 C 378.000 363.172,378.321 362.752,378.713 362.627 C 379.106 362.503,379.768 361.816,380.185 361.101 C 380.602 360.385,381.271 359.509,381.672 359.153 C 382.072 358.797,382.400 358.324,382.400 358.102 C 382.400 357.880,382.670 357.474,383.000 357.200 C 383.330 356.926,383.600 356.383,383.600 355.994 C 383.600 355.604,383.873 355.181,384.206 355.053 C 384.539 354.925,384.989 354.411,385.205 353.910 C 385.613 352.966,386.449 351.548,386.804 351.200 C 386.916 351.090,387.366 350.280,387.804 349.400 C 388.242 348.520,388.690 347.710,388.800 347.600 C 389.278 347.122,390.000 345.561,390.000 345.005 C 390.000 344.672,390.160 344.400,390.355 344.400 C 390.551 344.400,390.829 343.770,390.974 343.000 C 391.118 342.230,391.408 341.600,391.618 341.600 C 391.828 341.600,392.000 341.240,392.000 340.800 C 392.000 340.360,392.136 340.000,392.302 340.000 C 392.696 340.000,393.511 338.143,393.841 336.497 C 393.983 335.784,394.257 335.200,394.450 335.200 C 394.642 335.200,394.800 334.750,394.800 334.200 C 394.800 333.650,394.963 333.200,395.162 333.200 C 395.362 333.200,395.649 332.300,395.800 331.200 C 395.951 330.101,396.238 329.100,396.437 328.977 C 396.637 328.854,396.800 328.234,396.800 327.600 C 396.800 326.966,396.980 326.336,397.200 326.200 C 397.420 326.064,397.600 325.459,397.600 324.856 C 397.600 324.253,397.779 323.581,397.998 323.362 C 398.217 323.143,398.515 321.532,398.659 319.782 C 398.803 318.032,399.119 316.472,399.361 316.315 C 399.987 315.908,399.987 84.092,399.361 83.685 C 399.119 83.528,398.803 81.968,398.659 80.218 C 398.515 78.468,398.217 76.857,397.998 76.638 C 397.779 76.419,397.600 75.646,397.600 74.920 C 397.600 74.194,397.420 73.600,397.200 73.600 C 396.980 73.600,396.800 72.970,396.800 72.200 C 396.800 71.430,396.643 70.800,396.451 70.800 C 396.259 70.800,395.987 70.082,395.847 69.205 C 395.707 68.328,395.264 67.023,394.863 66.305 C 394.462 65.587,394.009 64.371,393.858 63.603 C 393.516 61.875,392.706 60.000,392.302 60.000 C 392.136 60.000,392.000 59.640,392.000 59.200 C 392.000 58.760,391.828 58.400,391.618 58.400 C 391.408 58.400,391.118 57.770,390.974 57.000 C 390.829 56.230,390.551 55.600,390.355 55.600 C 390.160 55.600,390.000 55.328,390.000 54.995 C 390.000 54.399,389.231 52.792,388.759 52.400 C 388.627 52.290,388.186 51.480,387.780 50.600 C 387.374 49.720,386.920 48.910,386.772 48.800 C 386.623 48.690,385.984 47.611,385.351 46.403 C 384.718 45.194,383.795 43.756,383.300 43.207 C 382.805 42.658,382.400 42.063,382.400 41.886 C 382.400 41.709,381.950 41.114,381.400 40.564 C 380.850 40.014,380.400 39.384,380.400 39.164 C 380.400 38.944,379.995 38.330,379.500 37.800 C 379.005 37.270,377.970 36.088,377.200 35.173 C 375.105 32.684,374.007 31.600,373.582 31.600 C 373.372 31.600,373.200 31.362,373.200 31.072 C 373.200 30.543,370.997 28.229,367.991 25.600 C 366.342 24.157,365.748 23.600,364.919 22.714 C 364.184 21.928,363.260 21.200,362.999 21.200 C 362.869 21.200,362.314 20.750,361.764 20.200 C 361.214 19.650,360.542 19.200,360.270 19.200 C 359.999 19.200,359.517 18.840,359.200 18.400 C 358.883 17.960,358.470 17.600,358.283 17.600 C 358.096 17.600,357.692 17.375,357.385 17.100 C 356.360 16.181,355.808 15.804,354.600 15.200 C 353.940 14.870,353.162 14.375,352.871 14.100 C 352.581 13.825,352.086 13.600,351.771 13.600 C 351.457 13.600,351.198 13.465,351.195 13.300 C 351.193 13.135,350.428 12.643,349.495 12.206 C 348.563 11.769,347.710 11.317,347.600 11.201 C 347.202 10.780,343.774 9.219,342.700 8.969 C 342.095 8.828,341.600 8.553,341.600 8.357 C 341.600 8.160,341.240 8.000,340.800 8.000 C 340.360 8.000,340.000 7.864,340.000 7.698 C 340.000 7.256,337.895 6.396,336.130 6.118 C 335.288 5.985,334.510 5.769,334.400 5.638 C 333.914 5.059,332.307 4.395,330.817 4.156 C 329.928 4.014,329.200 3.741,329.200 3.549 C 329.200 3.357,328.570 3.200,327.800 3.200 C 327.030 3.200,326.400 3.020,326.400 2.800 C 326.400 2.580,325.806 2.400,325.080 2.400 C 324.354 2.400,323.581 2.221,323.362 2.002 C 323.143 1.783,321.532 1.485,319.782 1.341 C 318.032 1.197,316.472 0.881,316.315 0.639 C 316.048 0.229,93.765 -0.107,86.300 0.292 M80.400 158.369 C 82.572 158.619,97.685 158.933,115.680 159.103 C 138.636 159.320,147.285 159.525,147.623 159.863 C 148.415 160.655,146.922 161.086,141.770 161.554 C 139.113 161.796,136.413 162.154,135.770 162.350 C 135.126 162.546,133.838 162.936,132.906 163.215 C 131.134 163.747,130.802 164.135,123.981 173.600 C 120.775 178.050,112.620 188.521,111.888 189.127 C 111.539 189.417,110.863 190.407,110.386 191.327 C 109.910 192.247,108.443 194.511,107.125 196.359 C 105.808 198.206,104.621 200.006,104.488 200.359 C 104.354 200.711,103.628 201.863,102.873 202.917 C 100.973 205.571,101.096 205.594,108.600 203.979 C 109.480 203.790,111.100 203.456,112.200 203.238 C 113.300 203.019,115.460 202.542,117.000 202.177 C 118.540 201.812,120.475 201.424,121.300 201.315 C 122.125 201.205,122.800 200.902,122.800 200.640 C 122.800 200.378,123.918 199.939,125.300 199.661 C 126.675 199.383,128.430 198.991,129.200 198.789 C 129.970 198.587,131.879 198.129,133.443 197.771 L 136.286 197.120 138.443 198.629 C 139.629 199.459,140.782 200.332,141.005 200.569 C 141.228 200.806,141.948 201.303,142.605 201.673 C 144.631 202.813,143.791 204.400,141.161 204.400 C 139.766 204.400,138.029 205.569,136.998 207.204 C 136.356 208.220,135.606 208.867,134.900 209.015 C 134.295 209.142,133.080 209.410,132.200 209.612 C 131.320 209.814,129.340 210.261,127.800 210.605 C 126.260 210.948,124.370 211.391,123.600 211.589 C 122.014 211.997,119.860 212.499,115.800 213.405 C 114.260 213.748,112.370 214.194,111.600 214.395 C 110.830 214.597,108.850 215.049,107.200 215.400 C 105.550 215.751,103.570 216.203,102.800 216.405 C 101.128 216.842,97.116 217.723,93.800 218.383 C 92.480 218.645,90.770 219.024,90.000 219.226 C 79.121 222.072,75.539 220.760,79.905 215.528 C 82.212 212.763,82.309 212.712,85.800 212.410 C 88.540 212.173,88.566 212.161,87.000 211.828 C 83.202 211.021,83.219 211.235,86.623 207.104 C 88.302 205.067,90.109 202.870,90.638 202.223 C 91.167 201.575,91.600 200.886,91.600 200.691 C 91.600 199.643,100.568 189.600,101.504 189.600 C 101.873 189.600,101.996 189.366,101.840 188.960 C 101.554 188.215,103.838 184.952,109.791 177.600 C 112.018 174.850,114.609 171.520,115.548 170.200 L 117.256 167.800 115.328 167.670 C 114.268 167.599,112.410 167.727,111.200 167.955 C 107.145 168.719,93.633 169.391,93.086 168.856 C 92.819 168.594,92.231 166.989,91.781 165.290 L 90.962 162.200 85.581 161.924 C 76.199 161.443,71.792 160.162,72.567 158.142 C 72.821 157.480,72.594 157.473,80.400 158.369 M205.357 180.812 C 208.194 181.025,212.548 181.200,215.034 181.200 C 220.886 181.200,220.789 180.952,217.115 186.565 C 216.932 186.845,213.792 187.071,208.315 187.200 C 200.210 187.390,199.737 187.445,198.497 188.329 C 197.344 189.152,196.585 189.285,191.897 189.493 C 187.721 189.678,186.497 189.862,186.113 190.364 C 184.900 191.948,185.201 192.000,195.574 192.000 C 208.304 192.000,209.053 192.274,206.387 195.955 C 204.641 198.365,204.101 198.526,193.654 199.763 C 191.059 200.071,188.979 200.511,188.807 200.789 C 188.641 201.057,187.177 201.439,185.553 201.638 C 180.167 202.296,179.938 202.399,178.500 204.797 C 176.543 208.061,176.116 207.907,184.000 206.777 C 185.430 206.572,187.590 206.235,188.800 206.029 C 207.647 202.813,207.300 202.753,204.425 208.699 C 202.686 212.295,202.916 212.147,197.400 213.213 C 196.080 213.468,194.370 213.828,193.600 214.012 C 192.182 214.351,183.438 216.275,181.600 216.653 C 181.050 216.766,179.520 217.094,178.200 217.382 C 176.880 217.670,174.720 218.120,173.400 218.383 C 171.058 218.848,170.210 219.044,166.298 220.027 C 164.049 220.592,162.958 220.007,159.246 216.247 L 157.091 214.065 158.396 211.932 C 159.113 210.760,161.117 207.783,162.850 205.318 C 164.582 202.852,166.000 200.616,166.000 200.349 C 166.000 198.669,167.080 198.401,173.962 198.372 C 178.043 198.355,180.292 198.211,179.800 198.000 C 179.360 197.811,176.930 197.641,174.400 197.622 C 169.197 197.583,168.473 197.359,169.195 196.009 C 170.159 194.209,175.602 186.379,178.955 181.971 L 180.347 180.141 190.273 180.282 C 195.733 180.360,202.521 180.598,205.357 180.812 M299.200 185.367 C 299.200 186.548,299.403 186.834,300.692 187.467 C 302.395 188.303,302.521 188.626,305.225 199.093 C 307.062 206.200,307.103 206.697,305.900 207.207 C 305.078 207.554,305.104 207.579,306.200 207.494 C 306.947 207.435,307.408 207.174,307.420 206.800 C 307.462 205.588,316.000 189.277,317.524 187.500 C 318.135 186.787,324.996 186.440,326.567 187.043 C 327.593 187.437,327.340 188.252,324.540 193.558 C 323.078 196.331,321.750 198.870,321.590 199.200 C 318.046 206.507,310.759 219.741,309.631 220.917 C 308.721 221.867,303.844 222.274,302.400 221.522 C 300.864 220.721,299.273 217.094,298.582 212.819 C 297.820 208.108,297.835 208.074,300.680 207.896 C 301.956 207.816,301.020 207.733,298.600 207.712 C 295.289 207.682,294.518 207.764,295.484 208.043 C 297.086 208.506,297.120 208.412,293.000 214.954 C 290.583 218.792,289.555 220.088,288.800 220.253 C 288.250 220.373,286.750 220.725,285.468 221.036 C 281.263 222.053,278.792 221.676,278.805 220.020 C 278.813 219.104,281.099 214.754,282.179 213.600 C 282.694 213.050,283.236 212.029,283.383 211.332 C 283.777 209.459,285.298 208.003,286.881 207.984 L 288.200 207.969 286.899 207.403 L 285.598 206.838 286.848 204.719 C 287.536 203.554,288.496 201.700,288.983 200.600 C 289.471 199.500,290.682 197.160,291.676 195.400 C 292.669 193.640,293.931 191.390,294.479 190.400 C 297.436 185.062,298.126 184.000,298.638 184.000 C 299.011 184.000,299.200 184.460,299.200 185.367 M268.950 186.319 C 269.276 186.847,268.679 187.415,267.200 187.984 C 264.622 188.977,264.546 189.706,266.562 194.108 C 269.173 199.808,270.105 206.467,268.643 208.963 C 264.573 215.908,255.195 221.521,247.480 221.629 C 246.336 221.645,244.410 221.803,243.200 221.979 C 240.470 222.377,240.398 222.340,235.319 217.924 C 228.294 211.818,228.046 209.556,233.237 199.000 C 234.810 195.801,240.075 191.224,244.293 189.388 C 245.122 189.028,246.080 188.588,246.422 188.412 C 249.490 186.828,268.191 185.091,268.950 186.319 M248.915 196.205 C 244.094 198.680,242.000 200.101,242.000 200.898 C 242.000 201.095,241.493 202.008,240.873 202.928 C 237.094 208.537,237.185 210.827,241.292 213.448 C 245.851 216.357,259.320 211.431,260.242 206.516 C 260.930 202.849,259.420 197.852,256.813 195.165 C 254.853 193.146,254.880 193.142,248.915 196.205 M169.200 209.600 C 168.464 209.836,168.832 209.920,170.600 209.920 C 171.920 209.920,173.450 209.776,174.000 209.600 C 174.736 209.364,174.368 209.280,172.600 209.280 C 171.280 209.280,169.750 209.424,169.200 209.600 M179.500 209.482 C 179.995 209.578,180.805 209.578,181.300 209.482 C 181.795 209.387,181.390 209.309,180.400 209.309 C 179.410 209.309,179.005 209.387,179.500 209.482 M93.300 211.476 C 93.685 211.576,94.315 211.576,94.700 211.476 C 95.085 211.375,94.770 211.293,94.000 211.293 C 93.230 211.293,92.915 211.375,93.300 211.476 " stroke="none" fill="#040404" fill-rule="evenodd"></path><path id="path2" d="M72.543 158.205 C 72.285 158.878,73.048 160.007,73.749 159.988 C 73.997 159.981,73.885 159.792,73.500 159.568 C 71.815 158.587,72.684 157.879,75.300 158.101 C 76.774 158.226,77.472 158.178,77.000 157.985 C 75.581 157.402,72.798 157.540,72.543 158.205 M88.900 159.099 C 92.365 159.166,98.035 159.166,101.500 159.099 C 104.965 159.033,102.130 158.978,95.200 158.978 C 88.270 158.978,85.435 159.033,88.900 159.099 M139.712 159.495 C 140.764 159.577,142.384 159.576,143.312 159.492 C 144.240 159.408,143.380 159.341,141.400 159.342 C 139.420 159.343,138.660 159.412,139.712 159.495 M146.990 159.965 C 147.704 160.244,147.665 160.315,146.590 160.705 C 145.935 160.943,145.637 161.151,145.926 161.168 C 146.761 161.218,148.046 160.398,147.788 159.980 C 147.658 159.771,147.248 159.613,146.876 159.628 C 146.326 159.651,146.347 159.714,146.990 159.965 M79.705 161.487 C 80.314 161.579,81.214 161.577,81.705 161.482 C 82.197 161.387,81.700 161.311,80.600 161.314 C 79.500 161.317,79.097 161.395,79.705 161.487 M138.200 161.580 C 137.735 161.768,138.573 161.826,140.200 161.719 C 143.858 161.478,144.416 161.264,141.400 161.260 C 140.080 161.258,138.640 161.402,138.200 161.580 M84.100 161.887 C 84.705 161.978,85.695 161.978,86.300 161.887 C 86.905 161.795,86.410 161.720,85.200 161.720 C 83.990 161.720,83.495 161.795,84.100 161.887 M91.256 163.434 C 91.491 164.295,91.776 165.090,91.889 165.200 C 92.241 165.544,91.534 162.620,91.172 162.234 C 90.983 162.033,91.021 162.573,91.256 163.434 M134.600 162.400 C 134.096 162.617,134.022 162.744,134.400 162.744 C 134.730 162.744,135.360 162.589,135.800 162.400 C 136.304 162.183,136.378 162.056,136.000 162.056 C 135.670 162.056,135.040 162.211,134.600 162.400 M131.658 163.306 C 131.140 163.578,130.064 164.700,129.266 165.800 C 128.468 166.900,128.124 167.555,128.502 167.255 C 128.881 166.955,129.572 166.093,130.038 165.339 C 130.504 164.585,131.451 163.719,132.143 163.416 C 132.834 163.113,133.220 162.853,133.000 162.839 C 132.780 162.824,132.176 163.034,131.658 163.306 M92.068 166.200 C 92.062 166.640,92.211 167.360,92.400 167.800 C 92.838 168.819,92.838 167.768,92.400 166.400 C 92.143 165.596,92.077 165.557,92.068 166.200 M116.505 167.477 C 116.893 167.578,117.108 167.825,116.984 168.026 C 116.860 168.227,117.037 168.284,117.377 168.154 C 118.233 167.825,117.743 167.190,116.676 167.246 C 115.992 167.283,115.955 167.333,116.505 167.477 M108.400 168.000 L 106.200 168.270 108.200 168.295 C 109.300 168.309,110.650 168.176,111.200 168.000 C 112.428 167.607,111.609 167.607,108.400 168.000 M126.800 169.200 C 126.330 169.860,126.036 170.400,126.146 170.400 C 126.256 170.400,126.730 169.860,127.200 169.200 C 127.670 168.540,127.964 168.000,127.854 168.000 C 127.744 168.000,127.270 168.540,126.800 169.200 M101.305 168.687 C 101.914 168.779,102.814 168.777,103.305 168.682 C 103.797 168.587,103.300 168.511,102.200 168.514 C 101.100 168.517,100.697 168.595,101.305 168.687 M94.500 169.091 C 95.325 169.178,96.675 169.178,97.500 169.091 C 98.325 169.005,97.650 168.934,96.000 168.934 C 94.350 168.934,93.675 169.005,94.500 169.091 M115.193 170.700 C 114.455 171.745,114.200 172.297,114.626 171.927 C 115.371 171.279,117.008 168.800,116.690 168.800 C 116.605 168.800,115.932 169.655,115.193 170.700 M120.453 177.760 C 117.580 181.587,114.197 185.952,112.935 187.460 C 111.672 188.967,111.060 189.840,111.574 189.400 C 113.067 188.121,126.355 170.800,125.842 170.800 C 125.751 170.800,123.326 173.932,120.453 177.760 M108.957 178.700 C 103.961 184.952,102.977 186.257,104.057 185.200 C 104.731 184.540,109.330 178.888,110.600 177.159 C 111.040 176.559,112.000 175.334,112.734 174.435 C 113.467 173.536,113.978 172.800,113.869 172.800 C 113.760 172.800,111.550 175.455,108.957 178.700 M179.762 180.900 C 179.006 181.793,179.006 181.795,179.801 181.128 C 180.241 180.758,181.411 180.385,182.401 180.298 L 184.200 180.140 182.362 180.070 C 180.896 180.014,180.370 180.182,179.762 180.900 M193.500 180.698 C 195.315 180.772,198.285 180.772,200.100 180.698 C 201.915 180.623,200.430 180.563,196.800 180.563 C 193.170 180.563,191.685 180.623,193.500 180.698 M204.700 181.089 C 205.415 181.178,206.585 181.178,207.300 181.089 C 208.015 181.001,207.430 180.928,206.000 180.928 C 204.570 180.928,203.985 181.001,204.700 181.089 M219.176 181.577 C 219.650 181.876,219.489 182.337,218.276 184.164 C 217.464 185.387,216.802 186.525,216.804 186.694 C 216.806 186.862,217.542 185.885,218.441 184.522 C 219.980 182.187,220.171 181.192,219.076 181.206 C 218.778 181.210,218.816 181.349,219.176 181.577 M178.119 183.014 C 177.723 183.571,176.848 184.786,176.172 185.714 C 174.465 188.059,171.423 192.478,171.019 193.200 C 169.941 195.124,171.488 193.030,178.480 183.100 C 178.906 182.495,179.161 182.000,179.046 182.000 C 178.931 182.000,178.514 182.456,178.119 183.014 M297.391 185.300 L 296.761 186.600 297.681 185.406 L 298.600 184.212 298.800 185.604 C 298.961 186.724,299.282 187.128,300.442 187.674 C 301.852 188.337,301.920 188.476,303.428 193.820 C 304.276 196.828,305.024 199.128,305.089 198.932 C 305.625 197.326,302.114 188.158,300.700 187.467 C 299.402 186.833,299.200 186.550,299.200 185.367 C 299.200 183.582,298.240 183.547,297.391 185.300 M102.426 187.164 C 101.624 188.289,101.660 189.600,102.492 189.600 C 102.730 189.600,102.697 189.358,102.412 189.014 C 102.021 188.543,102.095 188.190,102.790 187.214 C 103.265 186.546,103.564 186.000,103.454 186.000 C 103.344 186.000,102.882 186.524,102.426 187.164 M256.800 186.405 C 256.020 186.572,256.994 186.612,259.000 186.497 C 260.980 186.382,262.675 186.224,262.767 186.144 C 263.065 185.886,258.240 186.097,256.800 186.405 M268.171 186.800 C 268.171 187.240,268.294 187.600,268.443 187.600 C 268.828 187.600,269.193 186.526,268.906 186.239 C 268.453 185.787,268.171 186.002,268.171 186.800 M205.500 187.098 C 207.535 187.171,210.865 187.171,212.900 187.098 C 214.935 187.025,213.270 186.966,209.200 186.966 C 205.130 186.966,203.465 187.025,205.500 187.098 M295.623 188.250 C 295.153 189.048,294.852 189.786,294.956 189.889 C 295.059 189.993,295.520 189.340,295.980 188.439 C 297.015 186.411,296.781 186.288,295.623 188.250 M317.510 187.500 C 317.173 187.885,316.596 188.830,316.229 189.600 C 315.484 191.162,316.223 190.340,317.281 188.430 L 317.963 187.200 322.194 187.200 C 327.312 187.200,327.375 187.278,325.421 191.157 C 324.634 192.721,324.080 194.000,324.190 194.000 C 324.502 194.000,327.200 188.489,327.200 187.853 C 327.200 186.543,318.623 186.231,317.510 187.500 M264.838 188.955 C 264.408 189.472,265.781 194.353,266.230 193.904 C 266.313 193.820,266.041 192.858,265.625 191.764 C 265.096 190.370,264.985 189.570,265.255 189.088 C 265.718 188.261,265.477 188.184,264.838 188.955 M185.992 190.100 C 185.604 190.901,185.617 190.924,186.111 190.315 C 186.552 189.771,187.480 189.604,190.633 189.499 L 194.600 189.367 190.514 189.284 C 186.632 189.204,186.406 189.245,185.992 190.100 M98.749 191.900 C 94.630 196.262,90.038 202.365,91.605 201.397 C 91.822 201.263,92.000 200.971,92.000 200.749 C 92.000 200.183,98.483 192.361,100.206 190.848 C 100.988 190.162,101.469 189.600,101.275 189.600 C 101.081 189.600,99.944 190.635,98.749 191.900 M293.800 191.600 C 293.459 192.260,293.269 192.800,293.379 192.800 C 293.489 192.800,293.859 192.260,294.200 191.600 C 294.541 190.940,294.731 190.400,294.621 190.400 C 294.511 190.400,294.141 190.940,293.800 191.600 M185.303 191.600 C 185.443 192.113,186.964 192.202,195.833 192.211 L 206.200 192.221 196.019 192.104 C 188.522 192.017,185.746 191.856,185.489 191.493 C 185.234 191.134,185.184 191.163,185.303 191.600 M312.906 195.500 C 308.425 203.694,306.730 207.600,307.655 207.600 C 307.845 207.600,308.000 207.266,308.000 206.858 C 308.000 205.972,310.780 200.037,313.601 194.900 C 314.719 192.865,315.548 191.200,315.445 191.200 C 315.342 191.200,314.199 193.135,312.906 195.500 M107.050 195.803 C 105.578 197.894,104.254 199.919,104.109 200.303 C 103.964 200.686,103.250 201.831,102.523 202.848 C 100.913 205.097,100.870 205.616,102.300 205.546 C 103.243 205.499,103.272 205.466,102.500 205.318 C 101.338 205.094,101.347 205.048,103.000 202.747 C 103.770 201.675,104.400 200.663,104.400 200.498 C 104.400 200.332,105.495 198.668,106.833 196.799 C 109.282 193.377,110.155 192.000,109.877 192.000 C 109.795 192.000,108.522 193.711,107.050 195.803 M253.600 193.618 C 253.154 193.920,253.279 193.959,254.090 193.771 C 254.966 193.568,255.426 193.765,256.439 194.777 C 257.131 195.469,257.772 195.962,257.862 195.871 C 258.117 195.617,255.235 193.199,254.686 193.206 C 254.419 193.209,253.930 193.395,253.600 193.618 M292.000 194.800 C 291.551 195.680,291.274 196.400,291.384 196.400 C 291.494 196.400,291.951 195.680,292.400 194.800 C 292.849 193.920,293.126 193.200,293.016 193.200 C 292.906 193.200,292.449 193.920,292.000 194.800 M206.600 195.051 C 206.180 195.832,205.398 196.815,204.864 197.236 C 204.329 197.656,204.065 198.000,204.276 198.000 C 204.991 198.000,207.939 194.206,207.537 193.803 C 207.442 193.709,207.021 194.270,206.600 195.051 M169.596 195.300 C 169.160 196.015,168.802 196.765,168.801 196.967 C 168.800 197.423,168.856 197.348,169.914 195.500 C 170.966 193.663,170.697 193.494,169.596 195.300 M178.900 194.276 C 179.285 194.376,179.915 194.376,180.300 194.276 C 180.685 194.175,180.370 194.093,179.600 194.093 C 178.830 194.093,178.515 194.175,178.900 194.276 M235.400 195.868 C 233.712 197.934,232.403 200.094,232.411 200.800 C 232.415 201.130,232.747 200.680,233.150 199.800 C 233.552 198.920,234.538 197.418,235.341 196.462 C 236.667 194.883,236.985 194.400,236.700 194.400 C 236.645 194.400,236.060 195.061,235.400 195.868 M322.000 197.600 C 321.551 198.480,321.274 199.200,321.384 199.200 C 321.494 199.200,321.951 198.480,322.400 197.600 C 322.849 196.720,323.126 196.000,323.016 196.000 C 322.906 196.000,322.449 196.720,322.000 197.600 M267.300 196.900 C 267.402 197.175,267.718 198.390,268.001 199.600 C 268.940 203.612,269.203 204.384,268.954 202.400 C 268.690 200.284,267.637 196.400,267.329 196.400 C 267.211 196.400,267.198 196.625,267.300 196.900 M290.000 198.400 C 289.551 199.280,289.274 200.000,289.384 200.000 C 289.494 200.000,289.951 199.280,290.400 198.400 C 290.849 197.520,291.126 196.800,291.016 196.800 C 290.906 196.800,290.449 197.520,290.000 198.400 M135.787 197.493 C 136.220 197.602,137.120 198.095,137.787 198.587 C 139.187 199.620,140.413 200.320,139.800 199.737 C 138.554 198.551,136.355 197.206,135.727 197.246 C 135.085 197.287,135.092 197.316,135.787 197.493 M171.916 197.497 C 173.299 197.575,175.459 197.574,176.716 197.495 C 177.972 197.416,176.840 197.352,174.200 197.353 C 171.560 197.353,170.532 197.418,171.916 197.497 M245.100 197.829 C 243.605 198.640,243.696 198.978,245.200 198.200 C 245.860 197.859,246.400 197.494,246.400 197.390 C 246.400 197.132,246.357 197.147,245.100 197.829 M258.828 197.800 C 258.828 198.020,259.086 198.650,259.400 199.200 C 259.714 199.750,259.972 200.020,259.972 199.800 C 259.972 199.580,259.714 198.950,259.400 198.400 C 259.086 197.850,258.828 197.580,258.828 197.800 M174.020 198.300 C 167.217 198.425,166.000 198.727,166.000 200.290 C 166.000 200.602,165.174 202.014,164.165 203.428 C 163.156 204.843,162.420 206.000,162.530 206.000 C 162.841 206.000,166.176 201.131,166.708 199.900 L 167.183 198.800 173.768 198.800 C 177.726 198.800,180.451 198.640,180.600 198.400 C 180.736 198.180,180.792 198.040,180.724 198.089 C 180.656 198.139,177.639 198.233,174.020 198.300 M201.800 198.400 C 200.693 198.682,200.677 198.709,201.600 198.747 C 202.150 198.769,202.870 198.613,203.200 198.400 C 203.881 197.960,203.529 197.960,201.800 198.400 M242.570 199.700 C 242.146 200.195,241.547 201.050,241.239 201.600 C 240.930 202.150,240.414 203.050,240.091 203.600 L 239.505 204.600 240.335 203.600 C 240.791 203.050,241.389 202.150,241.664 201.600 C 241.939 201.050,242.518 200.195,242.952 199.700 C 243.385 199.205,243.649 198.800,243.539 198.800 C 243.429 198.800,242.993 199.205,242.570 199.700 M125.400 199.600 C 124.896 199.817,124.822 199.944,125.200 199.944 C 125.530 199.944,126.160 199.789,126.600 199.600 C 127.104 199.383,127.178 199.256,126.800 199.256 C 126.470 199.256,125.840 199.411,125.400 199.600 M195.505 199.483 C 196.002 199.579,196.722 199.575,197.105 199.475 C 197.487 199.375,197.080 199.296,196.200 199.301 C 195.320 199.305,195.007 199.387,195.505 199.483 M305.268 200.400 C 305.262 200.950,305.411 201.760,305.600 202.200 L 305.944 203.000 305.932 202.200 C 305.926 201.760,305.776 200.950,305.600 200.400 L 305.280 199.400 305.268 200.400 M320.110 201.609 C 319.647 202.704,319.353 203.600,319.457 203.600 C 319.727 203.600,321.298 199.965,321.109 199.776 C 321.022 199.689,320.573 200.514,320.110 201.609 M187.887 200.570 C 187.573 200.884,186.795 201.221,186.158 201.319 C 185.521 201.417,185.787 201.450,186.749 201.392 C 187.712 201.334,188.612 201.115,188.749 200.904 C 188.887 200.693,189.270 200.417,189.600 200.292 C 190.010 200.136,189.924 200.053,189.329 200.032 C 188.849 200.014,188.201 200.257,187.887 200.570 M260.180 203.856 C 260.191 205.867,260.332 207.307,260.494 207.056 C 260.848 206.506,260.811 203.066,260.433 201.400 C 260.272 200.691,260.168 201.696,260.180 203.856 M288.832 200.760 C 288.814 201.068,288.083 202.563,287.207 204.082 L 285.615 206.845 286.907 207.389 L 288.200 207.933 286.800 208.103 C 285.404 208.271,285.405 208.272,287.000 208.308 C 287.880 208.328,288.960 208.189,289.400 208.000 C 290.184 207.663,290.183 207.656,289.360 207.628 C 288.898 207.613,287.969 207.408,287.295 207.173 L 286.071 206.747 287.669 203.975 C 288.548 202.450,289.177 200.977,289.065 200.701 C 288.918 200.336,288.855 200.352,288.832 200.760 M119.600 201.618 C 119.162 201.915,119.324 201.952,120.200 201.756 C 121.671 201.427,121.990 201.198,120.967 201.206 C 120.545 201.209,119.930 201.395,119.600 201.618 M231.877 201.900 C 231.475 202.608,230.333 206.466,230.481 206.615 C 230.571 206.704,231.023 205.613,231.486 204.189 C 232.232 201.892,232.384 201.008,231.877 201.900 M88.034 205.296 C 86.622 207.074,85.646 208.419,85.864 208.284 C 86.518 207.880,91.282 201.997,90.928 202.031 C 90.747 202.048,89.445 203.517,88.034 205.296 M116.000 202.400 C 115.196 202.657,115.157 202.723,115.800 202.732 C 116.240 202.738,116.960 202.589,117.400 202.400 C 118.419 201.962,117.368 201.962,116.000 202.400 M178.881 203.500 C 176.806 206.450,176.462 208.054,177.924 207.954 C 178.533 207.912,178.531 207.889,177.900 207.724 C 176.953 207.477,176.993 207.297,178.571 204.676 C 180.018 202.273,180.182 201.649,178.881 203.500 M110.400 203.606 C 109.978 203.882,110.215 203.923,111.200 203.742 C 112.925 203.425,113.251 203.198,111.967 203.206 C 111.435 203.209,110.730 203.389,110.400 203.606 M306.272 204.741 C 306.448 205.996,306.360 206.590,305.958 206.871 C 305.494 207.195,305.501 207.234,306.000 207.100 C 306.746 206.899,306.969 205.293,306.433 203.985 C 306.108 203.191,306.077 203.338,306.272 204.741 M141.600 204.000 C 140.776 204.264,140.741 204.326,141.400 204.354 C 141.840 204.373,142.470 204.213,142.800 204.000 C 143.501 203.547,143.014 203.547,141.600 204.000 M106.600 204.400 C 106.096 204.617,106.022 204.744,106.400 204.744 C 106.730 204.744,107.360 204.589,107.800 204.400 C 108.304 204.183,108.378 204.056,108.000 204.056 C 107.670 204.056,107.040 204.211,106.600 204.400 M198.800 204.400 C 197.456 204.831,198.908 204.831,200.600 204.400 C 201.678 204.126,201.698 204.094,200.800 204.087 C 200.250 204.083,199.350 204.224,198.800 204.400 M318.363 204.900 C 318.108 205.395,317.084 207.330,316.089 209.200 C 315.093 211.070,314.464 212.420,314.690 212.200 C 315.257 211.650,319.322 204.000,319.049 204.000 C 318.927 204.000,318.619 204.405,318.363 204.900 M138.303 205.300 C 137.785 205.795,137.640 206.000,137.980 205.756 C 138.321 205.512,138.960 205.112,139.400 204.868 C 139.840 204.624,139.985 204.419,139.722 204.412 C 139.460 204.405,138.821 204.805,138.303 205.300 M269.264 205.920 C 269.183 207.588,268.343 209.218,266.531 211.224 C 265.748 212.091,265.226 212.800,265.373 212.800 C 266.577 212.800,269.697 207.588,269.491 205.919 L 269.328 204.600 269.264 205.920 M204.475 207.819 C 203.270 210.300,203.405 210.647,204.646 208.261 C 205.201 207.194,205.587 206.253,205.503 206.170 C 205.419 206.086,204.957 206.828,204.475 207.819 M160.485 208.700 C 158.602 211.501,158.305 212.000,158.518 212.000 C 158.608 212.000,159.520 210.740,160.545 209.200 C 161.569 207.660,162.322 206.400,162.218 206.400 C 162.115 206.400,161.334 207.435,160.485 208.700 M238.046 207.639 C 237.201 210.063,237.577 211.167,239.800 212.783 C 240.240 213.103,240.015 212.734,239.300 211.964 C 237.932 210.489,237.734 209.552,238.411 207.771 C 238.637 207.176,238.748 206.615,238.657 206.524 C 238.567 206.433,238.292 206.935,238.046 207.639 M136.405 207.591 C 136.172 208.026,135.401 208.550,134.691 208.755 C 133.981 208.960,133.727 209.144,134.126 209.164 C 135.137 209.214,136.303 208.529,136.805 207.591 C 137.038 207.156,137.138 206.800,137.028 206.800 C 136.918 206.800,136.638 207.156,136.405 207.591 M181.000 207.200 C 179.922 207.474,179.902 207.506,180.800 207.513 C 181.350 207.517,182.250 207.376,182.800 207.200 C 184.144 206.769,182.692 206.769,181.000 207.200 M229.852 208.100 C 229.364 209.920,229.603 212.081,230.419 213.227 C 231.205 214.330,239.600 221.861,239.600 221.463 C 239.600 221.356,237.644 219.549,235.254 217.447 C 230.435 213.210,229.776 212.149,230.127 209.187 C 230.376 207.085,230.254 206.602,229.852 208.100 M294.833 207.344 C 294.925 207.424,297.610 207.590,300.800 207.715 C 304.147 207.845,306.262 207.796,305.800 207.598 C 305.049 207.277,294.473 207.032,294.833 207.344 M293.200 208.000 C 293.750 208.176,294.650 208.320,295.200 208.320 L 296.200 208.320 295.200 208.000 C 294.650 207.824,293.750 207.680,293.200 207.680 L 292.200 207.680 293.200 208.000 M298.154 208.577 C 298.032 208.894,298.017 209.479,298.120 209.877 C 298.246 210.364,298.322 210.252,298.354 209.533 C 298.379 208.947,298.625 208.376,298.900 208.265 C 299.292 208.107,299.289 208.056,298.887 208.032 C 298.606 208.014,298.275 208.259,298.154 208.577 M295.586 210.100 C 294.782 211.744,294.781 211.767,295.556 210.800 C 296.301 209.870,296.923 208.400,296.571 208.400 C 296.486 208.400,296.042 209.165,295.586 210.100 M84.440 209.758 C 83.740 210.502,83.658 210.784,84.070 211.022 C 84.361 211.190,84.463 211.178,84.296 210.994 C 84.129 210.810,84.386 210.241,84.866 209.730 C 85.346 209.218,85.649 208.800,85.539 208.800 C 85.429 208.800,84.935 209.231,84.440 209.758 M174.181 209.162 C 174.843 209.421,174.759 209.508,173.631 209.734 C 171.654 210.129,167.901 210.016,169.200 209.600 C 170.371 209.225,169.423 209.098,168.100 209.452 C 166.337 209.925,167.242 210.400,169.900 210.398 C 173.108 210.395,176.025 209.715,175.164 209.170 C 174.854 208.973,174.330 208.822,174.000 208.834 C 173.606 208.849,173.668 208.961,174.181 209.162 M178.662 209.100 C 178.560 209.265,179.342 209.400,180.400 209.400 C 181.458 209.400,182.240 209.265,182.138 209.100 C 182.036 208.935,181.254 208.800,180.400 208.800 C 179.546 208.800,178.764 208.935,178.662 209.100 M257.000 210.650 C 256.281 211.262,256.134 211.505,256.633 211.257 C 257.366 210.893,258.741 209.576,258.349 209.614 C 258.267 209.622,257.660 210.088,257.000 210.650 M125.800 210.800 C 125.296 211.017,125.222 211.144,125.600 211.144 C 125.930 211.144,126.560 210.989,127.000 210.800 C 127.504 210.583,127.578 210.456,127.200 210.456 C 126.870 210.456,126.240 210.611,125.800 210.800 M87.097 211.871 C 88.883 212.350,93.531 212.198,93.011 211.678 C 92.887 211.553,91.077 211.431,88.990 211.406 C 85.220 211.361,85.207 211.364,87.097 211.871 M122.400 211.600 C 121.576 211.864,121.541 211.926,122.200 211.954 C 122.640 211.973,123.270 211.813,123.600 211.600 C 124.301 211.147,123.814 211.147,122.400 211.600 M283.254 211.838 C 283.225 212.299,282.842 213.000,282.404 213.397 C 281.564 214.156,279.594 217.311,279.609 217.871 C 279.614 218.052,280.169 217.255,280.842 216.099 C 281.516 214.944,282.427 213.747,282.866 213.439 C 283.401 213.064,283.607 212.567,283.487 211.939 C 283.329 211.104,283.303 211.093,283.254 211.838 M294.153 212.500 C 292.776 214.836,292.686 215.035,293.387 214.200 C 294.200 213.232,294.900 212.000,294.638 212.000 C 294.533 212.000,294.315 212.225,294.153 212.500 M157.576 213.244 C 156.879 214.547,162.977 220.446,164.936 220.364 C 165.599 220.336,165.517 220.245,164.583 219.974 C 162.329 219.318,157.390 214.340,157.952 213.289 C 158.214 212.800,158.338 212.400,158.228 212.400 C 158.118 212.400,157.825 212.780,157.576 213.244 M81.049 214.300 C 78.753 216.789,78.000 217.885,78.000 218.740 C 78.000 219.536,79.371 220.816,80.189 220.784 C 80.415 220.775,80.105 220.499,79.500 220.171 C 77.817 219.258,78.089 218.080,80.634 215.268 C 81.862 213.911,82.769 212.800,82.650 212.800 C 82.530 212.800,81.810 213.475,81.049 214.300 M311.979 216.500 C 310.839 218.535,309.612 220.546,309.253 220.969 C 308.894 221.392,308.832 221.601,309.116 221.435 C 309.870 220.993,314.737 212.800,314.245 212.800 C 314.138 212.800,313.118 214.465,311.979 216.500 M113.800 213.600 C 113.296 213.817,113.222 213.944,113.600 213.944 C 113.930 213.944,114.560 213.789,115.000 213.600 C 115.504 213.383,115.578 213.256,115.200 213.256 C 114.870 213.256,114.240 213.411,113.800 213.600 M263.421 214.729 L 262.243 216.200 263.721 214.822 C 265.249 213.397,265.410 213.180,264.900 213.229 C 264.735 213.245,264.070 213.920,263.421 214.729 M298.875 214.200 C 298.865 214.860,299.011 215.760,299.200 216.200 L 299.544 217.000 299.525 216.200 C 299.514 215.760,299.368 214.860,299.200 214.200 L 298.895 213.000 298.875 214.200 M247.200 214.000 C 245.856 214.431,247.308 214.431,249.000 214.000 C 250.078 213.726,250.098 213.694,249.200 213.687 C 248.650 213.683,247.750 213.824,247.200 214.000 M110.400 214.400 C 109.576 214.664,109.541 214.726,110.200 214.754 C 110.640 214.773,111.270 214.613,111.600 214.400 C 112.301 213.947,111.814 213.947,110.400 214.400 M190.600 214.400 C 189.493 214.682,189.477 214.709,190.400 214.747 C 190.950 214.769,191.670 214.613,192.000 214.400 C 192.681 213.960,192.329 213.960,190.600 214.400 M292.153 215.700 C 290.776 218.036,290.686 218.235,291.387 217.400 C 292.200 216.432,292.900 215.200,292.638 215.200 C 292.533 215.200,292.315 215.425,292.153 215.700 M101.600 216.400 C 100.776 216.664,100.741 216.726,101.400 216.754 C 101.840 216.773,102.470 216.613,102.800 216.400 C 103.501 215.947,103.014 215.947,101.600 216.400 M181.600 216.400 C 180.776 216.664,180.741 216.726,181.400 216.754 C 181.840 216.773,182.470 216.613,182.800 216.400 C 183.501 215.947,183.014 215.947,181.600 216.400 M260.600 217.050 C 259.881 217.662,259.734 217.905,260.233 217.657 C 260.966 217.293,262.341 215.976,261.949 216.014 C 261.867 216.022,261.260 216.488,260.600 217.050 M299.605 217.316 C 299.595 217.961,301.166 220.673,301.871 221.227 C 302.513 221.731,302.544 221.728,302.133 221.198 C 301.876 220.868,301.203 219.788,300.638 218.798 C 300.072 217.809,299.607 217.142,299.605 217.316 M92.600 218.400 C 92.096 218.617,92.022 218.744,92.400 218.744 C 92.730 218.744,93.360 218.589,93.800 218.400 C 94.304 218.183,94.378 218.056,94.000 218.056 C 93.670 218.056,93.040 218.211,92.600 218.400 M172.200 218.400 C 171.696 218.617,171.622 218.744,172.000 218.744 C 172.330 218.744,172.960 218.589,173.400 218.400 C 173.904 218.183,173.978 218.056,173.600 218.056 C 173.270 218.056,172.640 218.211,172.200 218.400 M278.963 219.405 C 278.707 220.427,279.328 221.600,280.125 221.600 C 280.361 221.600,280.222 221.358,279.817 221.062 C 279.276 220.666,279.152 220.245,279.349 219.462 C 279.495 218.878,279.525 218.400,279.415 218.400 C 279.305 218.400,279.102 218.852,278.963 219.405 M289.800 219.200 C 289.402 219.640,288.714 220.000,288.271 220.000 C 287.829 220.000,287.578 220.112,287.715 220.248 C 288.163 220.696,289.790 220.047,290.303 219.215 C 290.943 218.179,290.730 218.172,289.800 219.200 M88.800 219.200 C 87.976 219.464,87.941 219.526,88.600 219.554 C 89.040 219.573,89.670 219.413,90.000 219.200 C 90.701 218.747,90.214 218.747,88.800 219.200 M168.400 219.200 C 167.576 219.464,167.541 219.526,168.200 219.554 C 168.640 219.573,169.270 219.413,169.600 219.200 C 170.301 218.747,169.814 218.747,168.400 219.200 M253.000 220.400 C 252.496 220.617,252.422 220.744,252.800 220.744 C 253.130 220.744,253.760 220.589,254.200 220.400 C 254.704 220.183,254.778 220.056,254.400 220.056 C 254.070 220.056,253.440 220.211,253.000 220.400 M249.200 221.200 C 247.833 221.488,247.828 221.495,249.000 221.519 C 249.660 221.533,250.560 221.389,251.000 221.200 C 251.962 220.787,251.164 220.787,249.200 221.200 M282.800 221.200 C 281.433 221.488,281.428 221.495,282.600 221.519 C 283.260 221.533,284.160 221.389,284.600 221.200 C 285.562 220.787,284.764 220.787,282.800 221.200 M241.246 221.963 C 240.907 222.178,241.451 222.232,242.646 222.104 C 243.721 221.988,244.675 221.828,244.767 221.747 C 245.129 221.428,241.765 221.635,241.246 221.963 M304.100 221.887 C 304.705 221.978,305.695 221.978,306.300 221.887 C 306.905 221.795,306.410 221.720,305.200 221.720 C 303.990 221.720,303.495 221.795,304.100 221.887 " stroke="none" fill="#5c5c04" fill-rule="evenodd"></path><path id="path3" d="M131.715 159.496 C 132.988 159.576,134.968 159.575,136.115 159.494 C 137.262 159.414,136.220 159.349,133.800 159.350 C 131.380 159.351,130.442 159.416,131.715 159.496 M187.705 180.687 C 188.314 180.779,189.214 180.777,189.705 180.682 C 190.197 180.587,189.700 180.511,188.600 180.514 C 187.500 180.517,187.097 180.595,187.705 180.687 M263.505 186.283 C 264.002 186.379,264.722 186.375,265.105 186.275 C 265.487 186.175,265.080 186.096,264.200 186.101 C 263.320 186.105,263.007 186.187,263.505 186.283 M300.500 208.291 C 301.325 208.378,302.675 208.378,303.500 208.291 C 304.325 208.205,303.650 208.134,302.000 208.134 C 300.350 208.134,299.675 208.205,300.500 208.291 M262.975 214.900 L 261.800 216.200 263.100 215.025 C 264.312 213.930,264.584 213.600,264.275 213.600 C 264.206 213.600,263.621 214.185,262.975 214.900 " stroke="none" fill="#7c7c04" fill-rule="evenodd"></path><path id="path4" d="M72.806 158.700 C 72.810 159.159,72.915 159.239,73.110 158.933 C 73.273 158.675,74.035 158.389,74.803 158.297 C 76.134 158.136,76.120 158.125,74.500 158.064 C 73.121 158.012,72.801 158.132,72.806 158.700 M112.524 159.499 C 115.783 159.567,121.003 159.566,124.124 159.499 C 127.246 159.431,124.580 159.376,118.200 159.377 C 111.820 159.377,109.266 159.432,112.524 159.499 M134.880 159.898 C 136.794 159.971,140.034 159.971,142.080 159.898 C 144.126 159.826,142.560 159.766,138.600 159.765 C 134.640 159.765,132.966 159.824,134.880 159.898 M77.200 160.800 C 77.750 160.976,78.650 161.117,79.200 161.113 C 80.098 161.106,80.078 161.074,79.000 160.800 C 77.308 160.369,75.856 160.369,77.200 160.800 M142.505 161.087 C 143.114 161.179,144.014 161.177,144.505 161.082 C 144.997 160.987,144.500 160.911,143.400 160.914 C 142.300 160.917,141.897 160.995,142.505 161.087 M84.500 161.487 C 85.105 161.578,86.095 161.578,86.700 161.487 C 87.305 161.395,86.810 161.320,85.600 161.320 C 84.390 161.320,83.895 161.395,84.500 161.487 M89.762 161.957 C 90.810 162.120,91.426 162.463,91.634 163.000 C 91.848 163.552,91.952 163.608,91.972 163.180 C 92.018 162.169,91.134 161.596,89.620 161.657 L 88.200 161.714 89.762 161.957 M130.128 164.100 C 129.005 165.346,125.934 169.600,126.158 169.600 C 126.258 169.600,127.425 168.160,128.752 166.400 C 131.185 163.171,131.618 162.448,130.128 164.100 M92.068 164.400 C 92.088 165.439,92.718 167.146,92.732 166.200 C 92.738 165.760,92.589 165.040,92.400 164.600 C 92.189 164.110,92.061 164.032,92.068 164.400 M117.100 167.082 C 118.183 167.291,118.210 167.487,117.303 168.569 C 116.702 169.285,116.747 169.276,117.629 168.500 C 118.191 168.005,119.034 167.600,119.502 167.600 C 119.970 167.600,120.464 167.420,120.600 167.200 C 120.755 166.949,119.983 166.820,118.524 166.854 C 117.246 166.884,116.605 166.987,117.100 167.082 M111.700 167.487 C 112.305 167.578,113.295 167.578,113.900 167.487 C 114.505 167.395,114.010 167.320,112.800 167.320 C 111.590 167.320,111.095 167.395,111.700 167.487 M101.100 168.289 C 101.815 168.378,102.985 168.378,103.700 168.289 C 104.415 168.201,103.830 168.128,102.400 168.128 C 100.970 168.128,100.385 168.201,101.100 168.289 M97.100 168.682 C 97.595 168.778,98.405 168.778,98.900 168.682 C 99.395 168.587,98.990 168.509,98.000 168.509 C 97.010 168.509,96.605 168.587,97.100 168.682 M115.008 171.642 C 114.201 172.765,113.732 173.565,113.966 173.421 C 114.452 173.120,116.932 169.600,116.657 169.600 C 116.557 169.600,115.815 170.519,115.008 171.642 M122.571 174.300 C 121.953 175.125,121.012 176.430,120.479 177.200 L 119.511 178.600 120.555 177.400 C 121.901 175.853,124.102 172.800,123.872 172.800 C 123.775 172.800,123.189 173.475,122.571 174.300 M109.808 178.300 C 108.949 179.345,108.660 179.840,109.166 179.400 C 110.061 178.622,111.798 176.400,111.512 176.400 C 111.434 176.400,110.667 177.255,109.808 178.300 M117.949 180.500 C 117.224 181.435,115.994 183.000,115.216 183.977 C 114.437 184.955,113.998 185.636,114.239 185.491 C 114.762 185.178,119.737 178.800,119.459 178.800 C 119.354 178.800,118.674 179.565,117.949 180.500 M106.783 182.100 C 104.927 184.375,104.334 185.322,105.709 183.816 C 106.984 182.420,108.522 180.400,108.312 180.400 C 108.234 180.400,107.545 181.165,106.783 182.100 M179.594 181.700 L 178.734 183.000 179.667 181.919 C 180.512 180.940,180.905 180.824,183.800 180.699 L 187.000 180.561 183.727 180.480 L 180.454 180.400 179.594 181.700 M196.700 181.093 C 197.635 181.177,199.165 181.177,200.100 181.093 C 201.035 181.009,200.270 180.940,198.400 180.940 C 196.530 180.940,195.765 181.009,196.700 181.093 M208.518 181.498 C 210.233 181.573,212.933 181.572,214.518 181.497 C 216.103 181.421,214.700 181.359,211.400 181.360 C 208.100 181.361,206.803 181.422,208.518 181.498 M218.888 181.791 C 219.047 181.966,218.851 182.580,218.454 183.155 C 217.455 184.599,217.123 185.200,217.323 185.200 C 217.895 185.200,219.534 182.009,219.093 181.755 C 218.822 181.599,218.730 181.615,218.888 181.791 M177.600 184.400 C 177.130 185.060,176.836 185.600,176.946 185.600 C 177.056 185.600,177.530 185.060,178.000 184.400 C 178.470 183.740,178.764 183.200,178.654 183.200 C 178.544 183.200,178.070 183.740,177.600 184.400 M297.391 186.100 C 296.815 187.289,296.815 187.332,297.396 186.602 C 297.942 185.917,298.085 185.888,298.410 186.402 C 298.701 186.863,298.789 186.747,298.794 185.900 C 298.802 184.420,298.160 184.511,297.391 186.100 M112.929 186.900 C 112.484 187.395,111.976 188.070,111.801 188.400 C 111.463 189.037,111.555 188.950,113.176 187.100 C 113.706 186.495,114.049 186.000,113.939 186.000 C 113.829 186.000,113.375 186.405,112.929 186.900 M259.905 186.683 C 260.402 186.779,261.122 186.775,261.505 186.675 C 261.887 186.575,261.480 186.496,260.600 186.501 C 259.720 186.505,259.407 186.587,259.905 186.683 M198.976 187.422 C 198.212 188.034,198.213 188.038,199.000 187.676 C 199.440 187.474,200.070 187.208,200.400 187.086 C 200.918 186.893,200.915 186.859,200.376 186.832 C 200.034 186.814,199.404 187.080,198.976 187.422 M317.592 188.100 C 317.204 188.901,317.217 188.924,317.711 188.315 C 318.152 187.771,319.080 187.604,322.233 187.499 L 326.200 187.367 322.114 187.284 C 318.232 187.204,318.006 187.245,317.592 188.100 M248.600 188.000 C 248.096 188.217,248.022 188.344,248.400 188.344 C 248.730 188.344,249.360 188.189,249.800 188.000 C 250.304 187.783,250.378 187.656,250.000 187.656 C 249.670 187.656,249.040 187.811,248.600 188.000 M295.087 190.100 C 293.178 193.552,292.635 194.669,293.093 194.200 C 293.631 193.649,296.902 187.600,296.662 187.600 C 296.556 187.600,295.847 188.725,295.087 190.100 M325.521 189.974 C 324.928 191.185,324.494 192.227,324.556 192.290 C 324.755 192.488,326.866 188.395,326.730 188.076 C 326.659 187.909,326.115 188.762,325.521 189.974 M264.598 188.802 C 263.575 189.932,264.010 190.037,265.086 188.920 C 265.573 188.414,265.826 188.000,265.648 188.000 C 265.470 188.000,264.997 188.361,264.598 188.802 M171.822 192.738 C 170.380 194.904,169.200 196.836,169.200 197.031 C 169.200 197.325,170.255 195.791,174.650 189.100 C 174.759 188.935,174.756 188.800,174.645 188.800 C 174.534 188.800,173.264 190.572,171.822 192.738 M185.949 189.500 C 185.466 190.116,185.475 190.142,186.024 189.714 C 186.399 189.422,188.393 189.177,191.024 189.099 L 195.400 188.970 190.949 188.885 C 187.122 188.812,186.421 188.898,185.949 189.500 M301.661 189.200 C 301.661 189.530,301.903 190.430,302.200 191.200 C 302.497 191.970,302.739 192.330,302.739 192.000 C 302.739 191.670,302.497 190.770,302.200 190.000 C 301.903 189.230,301.661 188.870,301.661 189.200 M315.800 191.200 C 315.243 192.300,314.877 193.200,314.987 193.200 C 315.097 193.200,315.643 192.300,316.200 191.200 C 316.757 190.100,317.123 189.200,317.013 189.200 C 316.903 189.200,316.357 190.100,315.800 191.200 M99.157 191.900 C 96.691 194.532,92.197 200.165,91.739 201.200 C 91.495 201.750,90.536 203.100,89.608 204.200 L 87.921 206.200 89.783 204.236 C 90.807 203.156,91.931 201.716,92.279 201.036 C 92.945 199.737,97.151 194.453,99.552 191.900 C 100.328 191.075,100.872 190.400,100.762 190.400 C 100.652 190.400,99.930 191.075,99.157 191.900 M106.788 195.457 C 103.649 199.929,101.950 202.871,103.018 201.985 C 103.338 201.719,103.600 201.286,103.600 201.022 C 103.600 200.758,104.874 198.755,106.431 196.571 C 107.988 194.387,109.434 192.285,109.645 191.900 C 110.517 190.307,109.607 191.440,106.788 195.457 M240.122 192.229 L 239.000 193.258 240.300 192.354 C 241.015 191.857,241.600 191.393,241.600 191.325 C 241.600 191.009,241.158 191.280,240.122 192.229 M206.100 192.676 C 207.519 193.047,206.026 196.290,203.890 197.477 C 203.400 197.749,203.246 197.978,203.546 197.986 C 204.267 198.005,206.773 195.248,207.054 194.127 C 207.330 193.027,206.957 192.386,206.076 192.446 C 205.467 192.488,205.469 192.511,206.100 192.676 M302.856 193.200 C 302.856 193.530,303.011 194.160,303.200 194.600 C 303.417 195.104,303.544 195.178,303.544 194.800 C 303.544 194.470,303.389 193.840,303.200 193.400 C 302.983 192.896,302.856 192.822,302.856 193.200 M322.600 195.600 C 321.824 197.140,321.280 198.400,321.390 198.400 C 321.500 198.400,322.224 197.140,323.000 195.600 C 323.776 194.060,324.320 192.800,324.210 192.800 C 324.100 192.800,323.376 194.060,322.600 195.600 M236.425 195.448 C 234.559 197.490,232.880 200.000,233.379 200.000 C 233.489 200.000,233.847 199.482,234.175 198.848 C 234.503 198.215,235.695 196.685,236.825 195.448 C 237.956 194.212,238.790 193.200,238.680 193.200 C 238.570 193.200,237.556 194.212,236.425 195.448 M257.040 194.777 C 257.722 195.560,258.577 196.645,258.940 197.189 C 259.303 197.733,259.600 197.971,259.600 197.717 C 259.600 197.463,258.745 196.378,257.700 195.305 C 256.655 194.232,256.358 193.995,257.040 194.777 M177.863 193.900 C 177.762 194.065,178.652 194.200,179.840 194.200 C 181.028 194.200,182.000 194.065,182.000 193.900 C 182.000 193.735,181.111 193.600,180.024 193.600 C 178.937 193.600,177.965 193.735,177.863 193.900 M265.640 193.600 C 265.625 193.710,266.066 194.970,266.620 196.400 C 267.174 197.830,267.518 198.460,267.383 197.800 C 267.153 196.671,265.699 193.167,265.640 193.600 M313.800 194.800 C 313.459 195.460,313.269 196.000,313.379 196.000 C 313.489 196.000,313.859 195.460,314.200 194.800 C 314.541 194.140,314.731 193.600,314.621 193.600 C 314.511 193.600,314.141 194.140,313.800 194.800 M171.600 195.000 C 171.600 195.330,171.870 195.600,172.200 195.600 C 172.530 195.600,172.800 195.330,172.800 195.000 C 172.800 194.670,172.530 194.400,172.200 194.400 C 171.870 194.400,171.600 194.670,171.600 195.000 M291.800 196.000 C 291.459 196.660,291.269 197.200,291.379 197.200 C 291.489 197.200,291.859 196.660,292.200 196.000 C 292.541 195.340,292.731 194.800,292.621 194.800 C 292.511 194.800,292.141 195.340,291.800 196.000 M303.656 196.000 C 303.656 196.330,303.811 196.960,304.000 197.400 C 304.217 197.904,304.344 197.978,304.344 197.600 C 304.344 197.270,304.189 196.640,304.000 196.200 C 303.783 195.696,303.656 195.622,303.656 196.000 M244.100 198.046 C 242.737 198.919,242.295 199.506,243.500 198.843 C 244.418 198.339,245.856 197.227,245.600 197.219 C 245.490 197.216,244.815 197.588,244.100 198.046 M198.500 198.676 C 198.885 198.776,199.515 198.776,199.900 198.676 C 200.285 198.575,199.970 198.493,199.200 198.493 C 198.430 198.493,198.115 198.575,198.500 198.676 M304.662 199.800 C 304.796 200.680,304.972 201.475,305.053 201.567 C 305.356 201.910,305.129 199.768,304.781 199.000 C 304.529 198.442,304.493 198.685,304.662 199.800 M167.123 199.500 C 166.374 200.372,165.858 201.735,166.405 201.397 C 166.622 201.263,166.800 200.904,166.800 200.599 C 166.800 200.295,167.200 199.765,167.689 199.423 C 168.178 199.080,168.386 198.800,168.151 198.800 C 167.916 198.800,167.453 199.115,167.123 199.500 M320.592 199.213 C 320.205 199.839,319.587 202.146,319.886 201.847 C 320.189 201.545,321.170 198.800,320.976 198.800 C 320.905 198.800,320.732 198.986,320.592 199.213 M192.100 199.476 C 192.485 199.576,193.115 199.576,193.500 199.476 C 193.885 199.375,193.570 199.293,192.800 199.293 C 192.030 199.293,191.715 199.375,192.100 199.476 M241.742 199.693 C 240.865 201.112,239.589 203.746,239.946 203.400 C 240.440 202.920,242.448 199.200,242.212 199.200 C 242.122 199.200,241.910 199.422,241.742 199.693 M260.214 200.005 C 260.338 200.558,260.604 201.908,260.806 203.005 L 261.172 205.000 260.976 202.647 C 260.869 201.353,260.602 200.003,260.385 199.647 C 260.078 199.146,260.040 199.227,260.214 200.005 M123.720 200.555 C 123.544 200.861,123.040 201.200,122.600 201.309 C 121.831 201.500,121.832 201.509,122.639 201.554 C 123.100 201.579,123.893 201.240,124.400 200.800 C 125.112 200.183,125.176 200.000,124.681 200.000 C 124.328 200.000,123.896 200.250,123.720 200.555 M140.000 200.800 C 140.235 201.240,140.647 201.586,140.914 201.568 C 141.280 201.545,141.277 201.487,140.900 201.335 C 140.625 201.224,140.400 200.878,140.400 200.567 C 140.400 200.255,140.214 200.000,139.986 200.000 C 139.705 200.000,139.710 200.258,140.000 200.800 M185.867 200.267 C 185.369 200.765,185.597 201.200,186.357 201.200 C 186.774 201.200,187.218 200.930,187.345 200.600 C 187.580 199.987,186.410 199.724,185.867 200.267 M232.715 201.010 C 232.592 201.445,232.369 202.160,232.220 202.600 C 232.071 203.040,232.242 202.894,232.600 202.276 C 232.958 201.658,233.181 200.942,233.095 200.686 C 233.010 200.430,232.839 200.576,232.715 201.010 M142.800 202.370 C 143.333 202.752,143.333 202.848,142.800 203.230 C 142.267 203.613,142.267 203.643,142.800 203.497 C 143.130 203.407,143.400 203.093,143.400 202.800 C 143.400 202.507,143.130 202.193,142.800 202.103 C 142.267 201.957,142.267 201.987,142.800 202.370 M163.910 204.500 C 161.141 208.433,160.226 209.849,160.876 209.200 C 161.675 208.401,166.108 202.000,165.863 202.000 C 165.757 202.000,164.878 203.125,163.910 204.500 M178.920 202.900 C 178.469 203.395,177.894 204.250,177.642 204.800 C 177.253 205.648,177.261 205.686,177.692 205.046 C 177.971 204.632,178.621 203.777,179.136 203.146 C 180.245 201.787,180.092 201.613,178.920 202.900 M288.200 203.200 C 287.859 203.860,287.669 204.400,287.779 204.400 C 287.889 204.400,288.259 203.860,288.600 203.200 C 288.941 202.540,289.131 202.000,289.021 202.000 C 288.911 202.000,288.541 202.540,288.200 203.200 M305.256 202.400 C 305.256 202.730,305.411 203.360,305.600 203.800 C 305.817 204.304,305.944 204.378,305.944 204.000 C 305.944 203.670,305.789 203.040,305.600 202.600 C 305.383 202.096,305.256 202.022,305.256 202.400 M318.000 204.800 C 317.334 206.120,316.878 207.200,316.988 207.200 C 317.098 207.200,317.734 206.120,318.400 204.800 C 319.066 203.480,319.522 202.400,319.412 202.400 C 319.302 202.400,318.666 203.480,318.000 204.800 M308.788 204.423 C 307.993 205.982,308.023 207.880,308.835 207.378 C 309.043 207.250,309.111 206.979,308.986 206.777 C 308.861 206.575,309.038 206.516,309.379 206.647 C 309.721 206.778,310.000 206.686,310.000 206.443 C 310.000 206.199,309.730 206.000,309.400 206.000 C 308.639 206.000,308.642 205.467,309.410 203.980 C 309.746 203.331,309.930 202.800,309.818 202.800 C 309.707 202.800,309.244 203.530,308.788 204.423 M138.400 204.600 C 137.094 205.347,137.551 205.355,139.254 204.616 C 139.994 204.294,140.330 204.031,140.000 204.030 C 139.670 204.029,138.950 204.286,138.400 204.600 M203.700 204.291 C 205.544 204.484,205.548 204.696,203.789 208.367 C 203.013 209.986,202.444 211.377,202.525 211.458 C 202.842 211.775,205.668 205.153,205.453 204.595 C 205.300 204.195,204.730 204.022,203.713 204.067 L 202.200 204.134 203.700 204.291 M268.860 206.207 C 268.791 207.586,267.434 209.790,265.046 212.400 L 263.400 214.199 265.121 212.600 C 267.574 210.320,269.297 207.506,269.088 206.120 L 268.920 205.000 268.860 206.207 M136.518 206.700 C 136.133 207.305,135.634 207.932,135.409 208.094 C 135.142 208.286,135.159 208.390,135.460 208.394 C 135.714 208.397,136.293 207.770,136.747 207.000 C 137.721 205.349,137.534 205.104,136.518 206.700 M190.800 206.000 C 189.433 206.288,189.428 206.295,190.600 206.319 C 191.260 206.333,192.160 206.189,192.600 206.000 C 193.562 205.587,192.764 205.587,190.800 206.000 M230.629 207.029 C 230.481 207.615,230.438 208.172,230.532 208.266 C 230.627 208.360,230.824 207.958,230.971 207.371 C 231.119 206.785,231.162 206.228,231.068 206.134 C 230.973 206.040,230.776 206.442,230.629 207.029 M85.974 208.500 C 85.010 209.655,84.539 210.347,84.926 210.038 C 85.704 209.418,88.168 206.400,87.896 206.400 C 87.802 206.400,86.937 207.345,85.974 208.500 M176.490 207.397 C 176.568 207.914,177.030 208.284,177.805 208.450 C 178.462 208.590,178.775 208.727,178.500 208.753 C 178.225 208.779,178.000 209.016,178.000 209.280 C 178.000 209.653,178.107 209.653,178.480 209.280 C 178.744 209.016,179.689 208.770,180.580 208.733 L 182.200 208.666 180.600 208.489 C 179.268 208.342,179.134 208.252,179.800 207.957 C 180.348 207.714,180.077 207.674,178.936 207.830 C 177.600 208.013,177.183 207.915,176.821 207.329 C 176.397 206.642,176.377 206.646,176.490 207.397 M292.886 207.251 C 291.717 207.588,291.407 208.400,292.447 208.400 C 292.667 208.400,292.736 208.220,292.600 208.000 C 292.272 207.470,291.794 207.530,298.800 207.219 L 305.000 206.943 299.600 206.908 C 296.630 206.888,293.609 207.043,292.886 207.251 M259.504 208.844 C 258.901 209.700,258.487 210.400,258.583 210.400 C 258.869 210.400,260.926 207.592,260.756 207.433 C 260.670 207.354,260.107 207.988,259.504 208.844 M289.565 207.491 C 290.311 207.632,290.402 207.754,289.965 208.030 C 289.508 208.319,289.534 208.389,290.100 208.394 C 290.485 208.397,290.800 208.130,290.800 207.800 C 290.800 207.399,290.435 207.218,289.700 207.254 C 288.665 207.306,288.657 207.320,289.565 207.491 M315.600 209.200 C 315.151 210.080,314.874 210.800,314.984 210.800 C 315.094 210.800,315.551 210.080,316.000 209.200 C 316.449 208.320,316.726 207.600,316.616 207.600 C 316.506 207.600,316.049 208.320,315.600 209.200 M284.829 209.454 C 283.905 210.628,283.923 210.583,283.830 212.070 C 283.771 213.019,283.854 213.092,284.554 212.718 C 285.284 212.327,285.293 212.257,284.672 211.803 C 284.053 211.351,284.078 211.197,284.988 209.856 C 286.135 208.165,286.037 207.918,284.829 209.454 M295.300 209.700 C 294.870 210.875,294.880 210.926,295.412 210.224 C 295.921 209.552,296.221 208.400,295.888 208.400 C 295.826 208.400,295.561 208.985,295.300 209.700 M169.100 209.082 C 169.595 209.178,170.405 209.178,170.900 209.082 C 171.395 208.987,170.990 208.909,170.000 208.909 C 169.010 208.909,168.605 208.987,169.100 209.082 M175.145 209.158 C 175.554 209.417,175.404 209.607,174.545 209.920 C 173.915 210.149,173.637 210.351,173.926 210.368 C 174.761 210.418,176.046 209.598,175.788 209.180 C 175.658 208.971,175.338 208.803,175.076 208.806 C 174.759 208.810,174.782 208.928,175.145 209.158 M230.093 210.400 C 230.093 211.170,230.175 211.485,230.276 211.100 C 230.376 210.715,230.376 210.085,230.276 209.700 C 230.175 209.315,230.093 209.630,230.093 210.400 M127.800 210.000 C 127.296 210.217,127.222 210.344,127.600 210.344 C 127.930 210.344,128.560 210.189,129.000 210.000 C 129.504 209.783,129.578 209.656,129.200 209.656 C 128.870 209.656,128.240 209.811,127.800 210.000 M179.705 209.887 C 180.314 209.979,181.214 209.977,181.705 209.882 C 182.197 209.787,181.700 209.711,180.600 209.714 C 179.500 209.717,179.097 209.795,179.705 209.887 M159.053 211.591 C 158.474 212.467,158.000 213.317,158.000 213.480 C 158.000 213.644,158.242 213.423,158.539 212.989 C 159.841 211.081,160.478 210.000,160.299 210.000 C 160.193 210.000,159.632 210.716,159.053 211.591 M237.200 210.664 C 237.200 210.882,237.695 211.497,238.300 212.030 L 239.400 213.000 238.400 211.800 C 237.850 211.140,237.355 210.525,237.300 210.433 C 237.245 210.342,237.200 210.445,237.200 210.664 M92.200 211.038 C 94.074 211.339,96.709 211.377,96.538 211.100 C 96.436 210.935,95.238 210.825,93.876 210.854 C 92.514 210.884,91.760 210.967,92.200 211.038 M88.500 211.476 C 88.885 211.576,89.515 211.576,89.900 211.476 C 90.285 211.375,89.970 211.293,89.200 211.293 C 88.430 211.293,88.115 211.375,88.500 211.476 M294.153 211.700 C 292.776 214.036,292.686 214.235,293.387 213.400 C 294.200 212.432,294.900 211.200,294.638 211.200 C 294.533 211.200,294.315 211.425,294.153 211.700 M313.600 212.800 C 313.151 213.680,312.874 214.400,312.984 214.400 C 313.094 214.400,313.551 213.680,314.000 212.800 C 314.449 211.920,314.726 211.200,314.616 211.200 C 314.506 211.200,314.049 211.920,313.600 212.800 M86.705 212.683 C 87.202 212.779,87.922 212.775,88.305 212.675 C 88.687 212.575,88.280 212.496,87.400 212.501 C 86.520 212.505,86.207 212.587,86.705 212.683 M81.375 214.500 L 80.200 215.800 81.500 214.625 C 82.712 213.530,82.984 213.200,82.675 213.200 C 82.606 213.200,82.021 213.785,81.375 214.500 M110.800 214.018 C 110.362 214.315,110.524 214.352,111.400 214.156 C 112.871 213.827,113.190 213.598,112.167 213.606 C 111.745 213.609,111.130 213.795,110.800 214.018 M241.376 214.178 C 241.804 214.520,242.434 214.786,242.776 214.768 C 243.315 214.741,243.318 214.707,242.800 214.514 C 242.470 214.392,241.840 214.126,241.400 213.924 C 240.613 213.562,240.612 213.566,241.376 214.178 M96.800 214.485 C 96.800 214.927,97.904 214.879,98.185 214.424 C 98.313 214.218,98.053 214.076,97.609 214.109 C 97.164 214.143,96.800 214.312,96.800 214.485 M158.974 215.493 C 159.840 216.424,160.635 217.099,160.741 216.993 C 160.847 216.887,160.856 216.755,160.762 216.700 C 160.668 216.645,159.873 215.970,158.996 215.201 L 157.400 213.801 158.974 215.493 M187.400 214.800 C 186.896 215.017,186.822 215.144,187.200 215.144 C 187.530 215.144,188.160 214.989,188.600 214.800 C 189.104 214.583,189.178 214.456,188.800 214.456 C 188.470 214.456,187.840 214.611,187.400 214.800 M245.100 214.682 C 245.595 214.778,246.405 214.778,246.900 214.682 C 247.395 214.587,246.990 214.509,246.000 214.509 C 245.010 214.509,244.605 214.587,245.100 214.682 M261.578 215.900 L 260.200 217.400 261.700 216.022 C 263.096 214.738,263.384 214.400,263.078 214.400 C 263.012 214.400,262.337 215.075,261.578 215.900 M281.697 214.900 C 281.026 215.738,279.545 218.842,279.677 219.136 C 279.744 219.288,280.354 218.284,281.031 216.906 C 282.292 214.336,282.394 214.030,281.697 214.900 M292.153 214.900 C 290.776 217.236,290.686 217.435,291.387 216.600 C 292.200 215.632,292.900 214.400,292.638 214.400 C 292.533 214.400,292.315 214.625,292.153 214.900 M311.800 216.000 C 311.459 216.660,311.269 217.200,311.379 217.200 C 311.489 217.200,311.859 216.660,312.200 216.000 C 312.541 215.340,312.731 214.800,312.621 214.800 C 312.511 214.800,312.141 215.340,311.800 216.000 M103.600 215.600 C 102.796 215.857,102.757 215.923,103.400 215.932 C 103.840 215.938,104.560 215.789,105.000 215.600 C 106.019 215.162,104.968 215.162,103.600 215.600 M183.600 215.600 C 182.796 215.857,182.757 215.923,183.400 215.932 C 183.840 215.938,184.560 215.789,185.000 215.600 C 186.019 215.162,184.968 215.162,183.600 215.600 M233.316 215.455 C 233.661 216.025,239.200 220.952,239.200 220.690 C 239.200 220.585,237.814 219.261,236.120 217.749 C 234.426 216.237,233.164 215.205,233.316 215.455 M299.606 215.833 C 299.609 216.255,299.795 216.870,300.018 217.200 C 300.315 217.638,300.352 217.476,300.156 216.600 C 299.827 215.129,299.598 214.810,299.606 215.833 M79.229 217.054 C 78.304 218.230,78.224 218.722,78.818 219.600 C 79.126 220.054,79.167 219.953,78.990 219.183 C 78.828 218.484,79.022 217.826,79.606 217.083 C 80.075 216.487,80.368 216.000,80.258 216.000 C 80.148 216.000,79.685 216.474,79.229 217.054 M289.546 218.816 C 288.966 219.467,288.624 220.000,288.784 220.000 C 289.093 220.000,290.085 218.940,290.563 218.100 C 291.015 217.305,290.681 217.540,289.546 218.816 M310.352 218.500 C 310.090 218.995,309.615 219.850,309.296 220.400 C 308.739 221.359,308.743 221.367,309.388 220.600 C 310.186 219.652,311.305 217.600,311.024 217.600 C 310.916 217.600,310.614 218.005,310.352 218.500 M300.412 218.278 C 300.405 218.540,300.805 219.179,301.300 219.697 C 301.795 220.215,302.000 220.360,301.756 220.020 C 301.512 219.679,301.112 219.040,300.868 218.600 C 300.624 218.160,300.419 218.015,300.412 218.278 M85.400 219.600 C 84.381 220.038,85.432 220.038,86.800 219.600 C 87.604 219.343,87.643 219.277,87.000 219.268 C 86.560 219.262,85.840 219.411,85.400 219.600 M251.800 220.400 C 251.296 220.617,251.222 220.744,251.600 220.744 C 251.930 220.744,252.560 220.589,253.000 220.400 C 253.504 220.183,253.578 220.056,253.200 220.056 C 252.870 220.056,252.240 220.211,251.800 220.400 M285.400 220.400 C 284.896 220.617,284.822 220.744,285.200 220.744 C 285.530 220.744,286.160 220.589,286.600 220.400 C 287.104 220.183,287.178 220.056,286.800 220.056 C 286.470 220.056,285.840 220.211,285.400 220.400 M243.500 221.489 C 244.215 221.578,245.385 221.578,246.100 221.489 C 246.815 221.401,246.230 221.328,244.800 221.328 C 243.370 221.328,242.785 221.401,243.500 221.489 M304.100 221.491 C 304.925 221.578,306.275 221.578,307.100 221.491 C 307.925 221.405,307.250 221.334,305.600 221.334 C 303.950 221.334,303.275 221.405,304.100 221.491 " stroke="none" fill="#848404" fill-rule="evenodd"></path></g></svg>